<?xml version="1.0" encoding="UTF-8" standalone="no"?><!DOCTYPE svg PUBLIC "-//W3C//DTD SVG 1.1//EN" "http://www.w3.org/Graphics/SVG/1.1/DTD/svg11.dtd"><!-- Generated by graphviz version 2.40.1 (20161225.0304)
 --><!-- Title: TimingGraph Pages: 1 --><svg xmlns="http://www.w3.org/2000/svg" xmlns:xlink="http://www.w3.org/1999/xlink" width="314pt" height="548pt" viewBox="0.00 0.00 313.98 548.00">
<g id="graph0" class="graph" transform="scale(1 1) rotate(0) translate(4 544)">
<title>TimingGraph</title>
<polygon fill="#ffffff" stroke="transparent" points="-4,4 -4,-544 309.9822,-544 309.9822,4 -4,4"/>
<!-- u1:b -->
<g id="node1" class="node">
<title>u1:b</title>
<ellipse fill="none" stroke="#000000" cx="277.7766" cy="-450" rx="28.4127" ry="18"/>
<text text-anchor="middle" x="277.7766" y="-445.8" font-family="Times,serif" font-size="14.00" fill="#000000">u1:b</text>
</g>
<!-- u1:o -->
<g id="node3" class="node">
<title>u1:o</title>
<ellipse fill="none" stroke="#000000" cx="240.7766" cy="-378" rx="28.4127" ry="18"/>
<text text-anchor="middle" x="240.7766" y="-373.8" font-family="Times,serif" font-size="14.00" fill="#000000">u1:o</text>
</g>
<!-- u1:b&#45;&gt;u1:o -->
<g id="edge16" class="edge">
<title>u1:b-&gt;u1:o</title>
<path fill="none" stroke="#000000" d="M268.8199,-432.5708C264.4569,-424.0807 259.1187,-413.6929 254.2751,-404.2674"/>
<polygon fill="#000000" stroke="#000000" points="257.3345,-402.5633 249.6508,-395.2687 251.1085,-405.7628 257.3345,-402.5633"/>
</g>
<!-- u4:b -->
<g id="node2" class="node">
<title>u4:b</title>
<ellipse fill="none" stroke="#000000" cx="166.7766" cy="-306" rx="28.4127" ry="18"/>
<text text-anchor="middle" x="166.7766" y="-301.8" font-family="Times,serif" font-size="14.00" fill="#000000">u4:b</text>
</g>
<!-- u4:o -->
<g id="node7" class="node">
<title>u4:o</title>
<ellipse fill="none" stroke="#000000" cx="166.7766" cy="-234" rx="28.4127" ry="18"/>
<text text-anchor="middle" x="166.7766" y="-229.8" font-family="Times,serif" font-size="14.00" fill="#000000">u4:o</text>
</g>
<!-- u4:b&#45;&gt;u4:o -->
<g id="edge4" class="edge">
<title>u4:b-&gt;u4:o</title>
<path fill="none" stroke="#000000" d="M166.7766,-287.8314C166.7766,-280.131 166.7766,-270.9743 166.7766,-262.4166"/>
<polygon fill="#000000" stroke="#000000" points="170.2767,-262.4132 166.7766,-252.4133 163.2767,-262.4133 170.2767,-262.4132"/>
</g>
<!-- u4:a -->
<g id="node16" class="node">
<title>u4:a</title>
<ellipse fill="none" stroke="#000000" cx="240.7766" cy="-306" rx="27.8286" ry="18"/>
<text text-anchor="middle" x="240.7766" y="-301.8" font-family="Times,serif" font-size="14.00" fill="#000000">u4:a</text>
</g>
<!-- u1:o&#45;&gt;u4:a -->
<g id="edge2" class="edge">
<title>u1:o-&gt;u4:a</title>
<path fill="none" stroke="#000000" d="M240.7766,-359.8314C240.7766,-352.131 240.7766,-342.9743 240.7766,-334.4166"/>
<polygon fill="#000000" stroke="#000000" points="244.2767,-334.4132 240.7766,-324.4133 237.2767,-334.4133 244.2767,-334.4132"/>
</g>
<!-- out -->
<g id="node4" class="node">
<title>out</title>
<ellipse fill="none" stroke="#000000" cx="54.7766" cy="-18" rx="27" ry="18"/>
<text text-anchor="middle" x="54.7766" y="-13.8" font-family="Times,serif" font-size="14.00" fill="#000000">out</text>
</g>
<!-- u3:a -->
<g id="node5" class="node">
<title>u3:a</title>
<ellipse fill="none" stroke="#000000" cx="54.7766" cy="-162" rx="27.8286" ry="18"/>
<text text-anchor="middle" x="54.7766" y="-157.8" font-family="Times,serif" font-size="14.00" fill="#000000">u3:a</text>
</g>
<!-- u3:o -->
<g id="node15" class="node">
<title>u3:o</title>
<ellipse fill="none" stroke="#000000" cx="54.7766" cy="-90" rx="28.4127" ry="18"/>
<text text-anchor="middle" x="54.7766" y="-85.8" font-family="Times,serif" font-size="14.00" fill="#000000">u3:o</text>
</g>
<!-- u3:a&#45;&gt;u3:o -->
<g id="edge8" class="edge">
<title>u3:a-&gt;u3:o</title>
<path fill="none" stroke="#000000" d="M54.7766,-143.8314C54.7766,-136.131 54.7766,-126.9743 54.7766,-118.4166"/>
<polygon fill="#000000" stroke="#000000" points="58.2767,-118.4132 54.7766,-108.4133 51.2767,-118.4133 58.2767,-118.4132"/>
</g>
<!-- tau2015_clk -->
<g id="node6" class="node">
<title>tau2015_clk</title>
<ellipse fill="none" stroke="#000000" cx="58.7766" cy="-522" rx="58.554" ry="18"/>
<text text-anchor="middle" x="58.7766" y="-517.8" font-family="Times,serif" font-size="14.00" fill="#000000">tau2015_clk</text>
</g>
<!-- f1:ck -->
<g id="node12" class="node">
<title>f1:ck</title>
<ellipse fill="none" stroke="#000000" cx="58.7766" cy="-450" rx="30.7577" ry="18"/>
<text text-anchor="middle" x="58.7766" y="-445.8" font-family="Times,serif" font-size="14.00" fill="#000000">f1:ck</text>
</g>
<!-- tau2015_clk&#45;&gt;f1:ck -->
<g id="edge11" class="edge">
<title>tau2015_clk-&gt;f1:ck</title>
<path fill="none" stroke="#000000" d="M58.7766,-503.8314C58.7766,-496.131 58.7766,-486.9743 58.7766,-478.4166"/>
<polygon fill="#000000" stroke="#000000" points="62.2767,-478.4132 58.7766,-468.4133 55.2767,-478.4133 62.2767,-478.4132"/>
</g>
<!-- f1:d -->
<g id="node14" class="node">
<title>f1:d</title>
<ellipse fill="none" stroke="#000000" cx="146.7766" cy="-162" rx="27" ry="18"/>
<text text-anchor="middle" x="146.7766" y="-157.8" font-family="Times,serif" font-size="14.00" fill="#000000">f1:d</text>
</g>
<!-- u4:o&#45;&gt;f1:d -->
<g id="edge3" class="edge">
<title>u4:o-&gt;f1:d</title>
<path fill="none" stroke="#000000" d="M161.8328,-216.2022C159.5972,-208.1541 156.904,-198.4588 154.4173,-189.5067"/>
<polygon fill="#000000" stroke="#000000" points="157.7817,-188.541 151.7328,-179.8425 151.037,-190.4145 157.7817,-188.541"/>
</g>
<!-- inp1 -->
<g id="node8" class="node">
<title>inp1</title>
<ellipse fill="none" stroke="#000000" cx="203.7766" cy="-522" rx="28.4127" ry="18"/>
<text text-anchor="middle" x="203.7766" y="-517.8" font-family="Times,serif" font-size="14.00" fill="#000000">inp1</text>
</g>
<!-- u1:a -->
<g id="node10" class="node">
<title>u1:a</title>
<ellipse fill="none" stroke="#000000" cx="203.7766" cy="-450" rx="27.8286" ry="18"/>
<text text-anchor="middle" x="203.7766" y="-445.8" font-family="Times,serif" font-size="14.00" fill="#000000">u1:a</text>
</g>
<!-- inp1&#45;&gt;u1:a -->
<g id="edge15" class="edge">
<title>inp1-&gt;u1:a</title>
<path fill="none" stroke="#000000" d="M203.7766,-503.8314C203.7766,-496.131 203.7766,-486.9743 203.7766,-478.4166"/>
<polygon fill="#000000" stroke="#000000" points="207.2767,-478.4132 203.7766,-468.4133 200.2767,-478.4133 207.2767,-478.4132"/>
</g>
<!-- inp2 -->
<g id="node9" class="node">
<title>inp2</title>
<ellipse fill="none" stroke="#000000" cx="277.7766" cy="-522" rx="28.4127" ry="18"/>
<text text-anchor="middle" x="277.7766" y="-517.8" font-family="Times,serif" font-size="14.00" fill="#000000">inp2</text>
</g>
<!-- inp2&#45;&gt;u1:b -->
<g id="edge14" class="edge">
<title>inp2-&gt;u1:b</title>
<path fill="none" stroke="#000000" d="M277.7766,-503.8314C277.7766,-496.131 277.7766,-486.9743 277.7766,-478.4166"/>
<polygon fill="#000000" stroke="#000000" points="281.2767,-478.4132 277.7766,-468.4133 274.2767,-478.4133 281.2767,-478.4132"/>
</g>
<!-- u1:a&#45;&gt;u1:o -->
<g id="edge17" class="edge">
<title>u1:a-&gt;u1:o</title>
<path fill="none" stroke="#000000" d="M212.7332,-432.5708C217.0962,-424.0807 222.4344,-413.6929 227.278,-404.2674"/>
<polygon fill="#000000" stroke="#000000" points="230.4447,-405.7628 231.9024,-395.2687 224.2186,-402.5633 230.4447,-405.7628"/>
</g>
<!-- f1:q -->
<g id="node11" class="node">
<title>f1:q</title>
<ellipse fill="none" stroke="#000000" cx="55.7766" cy="-378" rx="27" ry="18"/>
<text text-anchor="middle" x="55.7766" y="-373.8" font-family="Times,serif" font-size="14.00" fill="#000000">f1:q</text>
</g>
<!-- f1:q&#45;&gt;u4:b -->
<g id="edge1" class="edge">
<title>f1:q-&gt;u4:b</title>
<path fill="none" stroke="#000000" d="M75.3656,-365.2936C92.7447,-354.0207 118.3565,-337.4076 138.052,-324.6322"/>
<polygon fill="#000000" stroke="#000000" points="140.1492,-327.4437 146.6341,-319.0654 136.3398,-321.571 140.1492,-327.4437"/>
</g>
<!-- u2:a -->
<g id="node13" class="node">
<title>u2:a</title>
<ellipse fill="none" stroke="#000000" cx="54.7766" cy="-306" rx="27.8286" ry="18"/>
<text text-anchor="middle" x="54.7766" y="-301.8" font-family="Times,serif" font-size="14.00" fill="#000000">u2:a</text>
</g>
<!-- f1:q&#45;&gt;u2:a -->
<g id="edge9" class="edge">
<title>f1:q-&gt;u2:a</title>
<path fill="none" stroke="#000000" d="M55.5242,-359.8314C55.4173,-352.131 55.2901,-342.9743 55.1713,-334.4166"/>
<polygon fill="#000000" stroke="#000000" points="58.671,-334.3637 55.0323,-324.4133 51.6716,-334.4609 58.671,-334.3637"/>
</g>
<!-- f1:ck&#45;&gt;f1:q -->
<g id="edge12" class="edge">
<title>f1:ck-&gt;f1:q</title>
<path fill="none" stroke="#000000" d="M58.0196,-431.8314C57.6987,-424.131 57.3172,-414.9743 56.9606,-406.4166"/>
<polygon fill="#000000" stroke="#000000" points="60.4572,-406.2589 56.5438,-396.4133 53.4632,-406.5503 60.4572,-406.2589"/>
</g>
<!-- f1:ck&#45;&gt;f1:d -->
<g id="edge13" class="edge">
<title>f1:ck-&gt;f1:d</title>
<path fill="none" stroke="#000000" d="M71.056,-433.279C78.0738,-422.9909 86.5012,-409.2732 91.7766,-396 121.9753,-320.018 109.0316,-295.0878 129.7766,-216 132.0459,-207.3486 134.8499,-198.0245 137.5218,-189.5991"/>
<polygon fill="#000000" stroke="#000000" points="140.9202,-190.4652 140.6705,-179.8733 134.2605,-188.3091 140.9202,-190.4652"/>
</g>
<!-- u2:o -->
<g id="node17" class="node">
<title>u2:o</title>
<ellipse fill="none" stroke="#000000" cx="54.7766" cy="-234" rx="28.4127" ry="18"/>
<text text-anchor="middle" x="54.7766" y="-229.8" font-family="Times,serif" font-size="14.00" fill="#000000">u2:o</text>
</g>
<!-- u2:a&#45;&gt;u2:o -->
<g id="edge10" class="edge">
<title>u2:a-&gt;u2:o</title>
<path fill="none" stroke="#000000" d="M54.7766,-287.8314C54.7766,-280.131 54.7766,-270.9743 54.7766,-262.4166"/>
<polygon fill="#000000" stroke="#000000" points="58.2767,-262.4132 54.7766,-252.4133 51.2767,-262.4133 58.2767,-262.4132"/>
</g>
<!-- u3:o&#45;&gt;out -->
<g id="edge7" class="edge">
<title>u3:o-&gt;out</title>
<path fill="none" stroke="#000000" d="M54.7766,-71.8314C54.7766,-64.131 54.7766,-54.9743 54.7766,-46.4166"/>
<polygon fill="#000000" stroke="#000000" points="58.2767,-46.4132 54.7766,-36.4133 51.2767,-46.4133 58.2767,-46.4132"/>
</g>
<!-- u4:a&#45;&gt;u4:o -->
<g id="edge5" class="edge">
<title>u4:a-&gt;u4:o</title>
<path fill="none" stroke="#000000" d="M225.0831,-290.7307C214.7816,-280.7075 201.1374,-267.4321 189.6379,-256.2434"/>
<polygon fill="#000000" stroke="#000000" points="192.0555,-253.7124 182.4475,-249.2473 187.174,-258.7295 192.0555,-253.7124"/>
</g>
<!-- u2:o&#45;&gt;u3:a -->
<g id="edge6" class="edge">
<title>u2:o-&gt;u3:a</title>
<path fill="none" stroke="#000000" d="M54.7766,-215.8314C54.7766,-208.131 54.7766,-198.9743 54.7766,-190.4166"/>
<polygon fill="#000000" stroke="#000000" points="58.2767,-190.4132 54.7766,-180.4133 51.2767,-190.4133 58.2767,-190.4132"/>
</g>
</g>
</svg>